HIERARCHY
ROOT joint_Root
{
	OFFSET 0.0 0.0 0.0
	CHANNELS 6 Xposition Yposition Zposition Zrotation Xrotation Yrotation 
	JOINT Hips
	{
		OFFSET -17.1583 93.1646 452.98
		CHANNELS 6 Xposition Yposition Zposition Zrotation Xrotation Yrotation 
		JOINT Spine
		{
			OFFSET 15.7357 0.0 0.0
			CHANNELS 6 Xposition Yposition Zposition Zrotation Xrotation Yrotation 
			JOINT Chest
			{
				OFFSET 8.98455 -0.406207 0.0
				CHANNELS 6 Xposition Yposition Zposition Zrotation Xrotation Yrotation 
				JOINT Neck
				{
					OFFSET 16.3773 0.0 0.0
					CHANNELS 6 Xposition Yposition Zposition Zrotation Xrotation Yrotation 
					JOINT Head
					{
						OFFSET 6.45672 0.0 0.0
						CHANNELS 6 Xposition Yposition Zposition Zrotation Xrotation Yrotation 
						End Site
						{
							OFFSET 0.0 0.0 0.0
						}
					}
				}
				JOINT Shoulder_L
				{
					OFFSET 12.9942 -0.242716 4.98039
					CHANNELS 6 Xposition Yposition Zposition Zrotation Xrotation Yrotation 
					JOINT UpperArm_L
					{
						OFFSET 5.34809 0.0 0.0
						CHANNELS 6 Xposition Yposition Zposition Zrotation Xrotation Yrotation 
						JOINT LowerArm_L
						{
							OFFSET 24.3286 1.87007e-05 0.0
							CHANNELS 6 Xposition Yposition Zposition Zrotation Xrotation Yrotation 
							JOINT Hand_L
							{
								OFFSET 22.2916 0.0 0.0
								CHANNELS 6 Xposition Yposition Zposition Zrotation Xrotation Yrotation 
								End Site
								{
									OFFSET 0.0 0.0 0.0
								}
							}
						}
					}
				}
				JOINT Shoulder_R
				{
					OFFSET 12.9945 -0.242716 -4.98039
					CHANNELS 6 Xposition Yposition Zposition Zrotation Xrotation Yrotation 
					JOINT UpperArm_R
					{
						OFFSET -5.34813 0.0 0.0
						CHANNELS 6 Xposition Yposition Zposition Zrotation Xrotation Yrotation 
						JOINT LowerArm_R
						{
							OFFSET -24.3289 0.000322201 0.0
							CHANNELS 6 Xposition Yposition Zposition Zrotation Xrotation Yrotation 
							JOINT Hand_R
							{
								OFFSET -22.2915 -0.000108084 0.0
								CHANNELS 6 Xposition Yposition Zposition Zrotation Xrotation Yrotation 
								End Site
								{
									OFFSET 0.0 0.0 0.0
								}
							}
						}
					}
				}
			}
		}
		JOINT UpperLeg_L
		{
			OFFSET -2.19248 -6.46944 0.0
			CHANNELS 6 Xposition Yposition Zposition Zrotation Xrotation Yrotation 
			JOINT LowerLeg_L
			{
				OFFSET 39.0811 0.0 -1.23785e-05
				CHANNELS 6 Xposition Yposition Zposition Zrotation Xrotation Yrotation 
				JOINT Foot_L
				{
					OFFSET 40.9854 0.0 -1.26872e-05
					CHANNELS 6 Xposition Yposition Zposition Zrotation Xrotation Yrotation 
					JOINT Toes_L
					{
						OFFSET 11.7543 0.0 0.0
						CHANNELS 6 Xposition Yposition Zposition Zrotation Xrotation Yrotation 
						End Site
						{
							OFFSET 0.0 0.0 0.0
						}
					}
				}
			}
		}
		JOINT UpperLeg_R
		{
			OFFSET -2.19251 6.46944 0.0
			CHANNELS 6 Xposition Yposition Zposition Zrotation Xrotation Yrotation 
			JOINT LowerLeg_R
			{
				OFFSET -39.0811 -0.00228153 -0.0401928
				CHANNELS 6 Xposition Yposition Zposition Zrotation Xrotation Yrotation 
				JOINT Foot_R
				{
					OFFSET -40.9854 0.0 0.0
					CHANNELS 6 Xposition Yposition Zposition Zrotation Xrotation Yrotation 
					JOINT Toes_R
					{
						OFFSET -11.7543 0.0 0.0
						CHANNELS 6 Xposition Yposition Zposition Zrotation Xrotation Yrotation 
						End Site
						{
							OFFSET 0.0 0.0 0.0
						}
					}
				}
			}
		}
	}
}
MOTION
Frames:	7
Frame Time:	0.0333333
0.000000 0.000000 0.000000 0.000000 0.000000 -0.000000 -2.379340 91.673400 -0.420194 83.207200 0.978765 7.705980 15.735700 0.000005 -0.000001 65.484100 86.011700 -61.657300 8.984550 -0.406207 -0.000000 -0.376813 -3.580690 7.639750 16.377300 -0.000001 -0.000001 13.872100 1.119140 7.615780 6.456720 -0.000001 -0.000000 2.068470 1.537150 14.803700 12.994200 -0.242716 4.980390 -91.583900 4.368370 -70.047600 5.348090 -0.000007 -0.000001 -77.026900 -11.622900 -4.647440 24.328600 0.000019 0.000005 41.577400 -40.195900 -126.036000 22.291600 -0.000001 0.000005 49.550900 4.883410 9.706870 12.994500 -0.242716 -4.980390 87.853600 5.800110 -69.651500 -5.348130 -0.000001 -0.000004 -66.542600 -8.415900 -1.366510 -24.328900 0.000322 -0.000009 18.563700 -19.430500 -134.728000 -22.291500 -0.000108 -0.000004 63.370400 5.656670 -15.689100 -2.192480 -6.469440 -0.000000 -171.492000 3.955580 -1.135680 39.081100 -0.000007 -0.000012 0.444445 -0.768134 30.055000 40.985400 -0.000006 -0.000013 2.052480 10.035000 -77.818200 11.754300 -0.000000 0.000003 0.000269 0.162960 -9.967470 -2.192510 6.469440 -0.000001 -170.388000 7.922630 -174.394000 -39.081100 -0.002282 -0.040193 0.146513 -0.451481 17.596600 -40.985400 0.000008 0.000006 4.797250 1.093900 -71.504600 -11.754300 -0.000006 -0.000006 -0.010362 0.273991 -5.441110
0.000000 0.000000 0.000000 0.000000 0.000000 -0.000000 -2.327920 91.670600 -0.431959 83.175500 1.043640 7.712520 15.735700 0.000005 -0.000001 65.649400 86.021800 -61.832000 8.984550 -0.406207 -0.000000 -0.386961 -3.551130 7.620790 16.377300 -0.000001 -0.000001 13.905900 1.133970 7.638530 6.456720 -0.000001 -0.000000 2.038720 1.498280 14.685200 12.994200 -0.242716 4.980390 -91.597000 4.386770 -69.973100 5.348090 -0.000007 -0.000001 -77.069500 -11.973400 -4.643960 24.328600 0.000019 0.000005 41.839600 -40.248800 -125.815000 22.291600 -0.000001 0.000005 49.849300 4.864380 10.080900 12.994500 -0.242716 -4.980390 87.877300 5.740520 -69.666800 -5.348130 -0.000001 -0.000004 -66.619200 -8.485470 -1.352780 -24.328900 0.000322 -0.000009 18.491400 -19.282800 -134.638000 -22.291500 -0.000108 -0.000004 63.199200 5.658000 -15.834300 -2.192480 -6.469440 -0.000000 -171.512000 4.027310 -1.193500 39.081100 -0.000007 -0.000012 0.445960 -0.768818 30.117400 40.985400 -0.000006 -0.000013 2.072480 9.969230 -77.796300 11.754300 -0.000000 0.000003 0.000332 0.161830 -10.013400 -2.192510 6.469440 -0.000001 -170.399000 8.008390 -174.416000 -39.081100 -0.002282 -0.040193 0.146647 -0.451222 17.621600 -40.985400 0.000008 0.000006 4.763880 1.091670 -71.497300 -11.754300 -0.000006 -0.000006 -0.010302 0.273547 -5.459290
0.000000 0.000000 0.000000 0.000000 0.000000 -0.000000 -2.272990 91.676300 -0.426021 83.186800 1.108240 7.728030 15.735700 0.000005 -0.000001 65.870800 86.027100 -62.074100 8.984550 -0.406207 -0.000000 -0.385983 -3.517230 7.579600 16.377300 -0.000001 -0.000001 13.916900 1.114950 7.577820 6.456720 -0.000001 -0.000000 2.062090 1.441320 14.647700 12.994200 -0.242716 4.980390 -91.626400 4.455390 -69.922000 5.348090 -0.000007 -0.000001 -77.064900 -12.385000 -4.656630 24.328600 0.000019 0.000005 41.802900 -40.176700 -125.810000 22.291600 -0.000001 0.000005 49.679900 4.850440 10.352200 12.994500 -0.242716 -4.980390 87.883900 5.719340 -69.656800 -5.348130 -0.000001 -0.000004 -66.625700 -8.434130 -1.361140 -24.328900 0.000322 -0.000009 18.503700 -19.261000 -134.586000 -22.291500 -0.000108 -0.000004 63.154900 5.655750 -15.592300 -2.192480 -6.469440 -0.000000 -171.547000 3.943000 -1.169890 39.081100 -0.000007 -0.000012 0.446633 -0.770785 30.091500 40.985400 -0.000006 -0.000013 2.151240 10.082000 -77.797900 11.754300 -0.000000 0.000003 0.000280 0.162763 -9.975470 -2.192510 6.469440 -0.000001 -170.452000 8.021640 -174.392000 -39.081100 -0.002282 -0.040193 0.146568 -0.451340 17.608100 -40.985400 0.000008 0.000006 4.718630 1.071560 -71.501900 -11.754300 -0.000006 -0.000006 -0.009900 0.270557 -5.581570
0.000000 0.000000 0.000000 0.000000 0.000000 -0.000000 -2.217730 91.675400 -0.412232 83.181500 1.192250 7.781510 15.735700 0.000005 -0.000001 65.986500 86.018800 -62.204400 8.984550 -0.406207 -0.000000 -0.365054 -3.507640 7.550780 16.377300 -0.000001 -0.000001 13.947000 1.108450 7.541230 6.456720 -0.000001 -0.000000 2.028340 1.392900 14.558600 12.994200 -0.242716 4.980390 -91.628800 4.461750 -69.921900 5.348090 -0.000007 -0.000001 -77.086900 -12.757000 -4.573290 24.328600 0.000019 0.000005 41.820300 -40.086700 -125.743000 22.291600 -0.000001 0.000005 49.786200 4.849320 10.373900 12.994500 -0.242716 -4.980390 87.897600 5.678770 -69.645500 -5.348130 -0.000001 -0.000004 -66.685900 -8.410300 -1.384610 -24.328900 0.000322 -0.000009 18.477300 -19.199900 -134.542000 -22.291500 -0.000108 -0.000004 63.145500 5.656390 -15.659200 -2.192480 -6.469440 -0.000000 -171.572000 3.952080 -1.139930 39.081100 -0.000007 -0.000012 0.449708 -0.775456 30.111800 40.985400 -0.000006 -0.000013 2.203280 10.143100 -77.820900 11.754300 -0.000000 0.000003 0.000201 0.164173 -9.918230 -2.192510 6.469440 -0.000001 -170.497000 8.058540 -174.333000 -39.081100 -0.002282 -0.040193 0.145807 -0.448827 17.612300 -40.985400 0.000008 0.000006 4.667450 1.031870 -71.509400 -11.754300 -0.000006 -0.000006 -0.010084 0.271932 -5.525340
0.000000 0.000000 0.000000 0.000000 0.000000 -0.000000 -2.163700 91.673500 -0.420119 83.175700 1.266280 7.775380 15.735700 0.000005 -0.000001 66.122500 86.028700 -62.357600 8.984550 -0.406207 -0.000000 -0.377036 -3.481510 7.516310 16.377300 -0.000001 -0.000001 13.991600 1.100680 7.542650 6.456720 -0.000001 -0.000000 1.957460 1.339390 14.435800 12.994200 -0.242716 4.980390 -91.635300 4.475870 -69.905500 5.348090 -0.000007 -0.000001 -77.069200 -12.967300 -4.527010 24.328600 0.000019 0.000005 41.686700 -39.940700 -125.788000 22.291600 -0.000001 0.000005 49.849700 4.850440 10.352200 12.994500 -0.242716 -4.980390 87.892900 5.677770 -69.600300 -5.348130 -0.000001 -0.000004 -66.734800 -8.512420 -1.445170 -24.328900 0.000322 -0.000009 18.308000 -19.031500 -134.582000 -22.291500 -0.000108 -0.000004 62.981000 5.656430 -15.664100 -2.192480 -6.469440 -0.000000 -171.590000 3.939000 -1.193490 39.081100 -0.000007 -0.000012 0.447043 -0.769964 30.140700 40.985400 -0.000006 -0.000013 2.263080 10.214900 -77.754100 11.754300 -0.000000 0.000003 0.000293 0.162531 -9.984890 -2.192510 6.469440 -0.000001 -170.507000 8.010300 -174.384000 -39.081100 -0.002282 -0.040193 0.146766 -0.450388 17.665900 -40.985400 0.000008 0.000006 4.613890 0.931130 -71.517700 -11.754300 -0.000006 -0.000006 -0.010069 0.271823 -5.529790
0.000000 0.000000 0.000000 0.000000 0.000000 -0.000000 -2.104470 91.679000 -0.407002 83.185500 1.331830 7.776820 15.735700 0.000005 -0.000001 66.176600 86.024300 -62.432800 8.984550 -0.406207 -0.000000 -0.366870 -3.476390 7.474180 16.377300 -0.000001 -0.000001 13.955700 1.089870 7.501870 6.456720 -0.000001 -0.000000 1.963990 1.320830 14.390000 12.994200 -0.242716 4.980390 -91.647600 4.497250 -69.854900 5.348090 -0.000007 -0.000001 -77.088700 -13.228400 -4.593070 24.328600 0.000019 0.000005 41.732700 -39.924200 -125.734000 22.291600 -0.000001 0.000005 49.894300 4.843250 10.491300 12.994500 -0.242716 -4.980390 87.904500 5.647700 -69.604700 -5.348130 -0.000001 -0.000004 -66.786800 -8.526420 -1.458720 -24.328900 0.000322 -0.000009 18.270300 -18.970400 -134.556000 -22.291500 -0.000108 -0.000004 63.013200 5.654460 -15.457200 -2.192480 -6.469440 -0.000000 -171.640000 3.954630 -1.165140 39.081100 -0.000007 -0.000012 0.446929 -0.770729 30.109700 40.985400 -0.000006 -0.000013 2.326640 10.272700 -77.802000 11.754300 -0.000000 0.000003 0.000315 0.162143 -10.000600 -2.192510 6.469440 -0.000001 -170.547000 7.973740 -174.371000 -39.081100 -0.002282 -0.040193 0.146051 -0.448531 17.651600 -40.985400 0.000008 0.000006 4.554350 0.848902 -71.529200 -11.754300 -0.000006 -0.000006 -0.010030 0.271527 -5.541910
0.000000 0.000000 0.000000 0.000000 0.000000 -0.000000 -2.040450 91.679000 -0.396547 83.198300 1.373550 7.819280 15.735700 0.000005 -0.000001 66.360400 86.011100 -62.646000 8.984550 -0.406207 -0.000000 -0.334029 -3.460460 7.416640 16.377300 -0.000001 -0.000001 13.999700 1.075070 7.518520 6.456720 -0.000001 -0.000000 1.860730 1.282350 14.302100 12.994200 -0.242716 4.980390 -91.655000 4.518330 -69.859000 5.348090 -0.000007 -0.000001 -77.117700 -13.566500 -4.613270 24.328600 0.000019 0.000005 41.758800 -39.885100 -125.687000 22.291600 -0.000001 0.000005 49.899000 4.848260 10.394500 12.994500 -0.242716 -4.980390 87.906800 5.633650 -69.579000 -5.348130 -0.000001 -0.000004 -66.874200 -8.611430 -1.468570 -24.328900 0.000322 -0.000009 18.053800 -18.715700 -134.549000 -22.291500 -0.000108 -0.000004 62.923400 5.654560 -15.467500 -2.192480 -6.469440 -0.000000 -171.711000 3.972370 -1.131120 39.081100 -0.000007 -0.000012 0.448469 -0.773236 30.114500 40.985400 -0.000006 -0.000013 2.369330 10.240500 -77.784600 11.754300 -0.000000 0.000003 0.000274 0.162884 -9.970550 -2.192510 6.469440 -0.000001 -170.643000 8.106940 -174.333000 -39.081100 -0.002282 -0.040193 0.145788 -0.446833 17.683900 -40.985400 0.000008 0.000006 4.517460 0.934308 -71.555400 -11.754300 -0.000006 -0.000006 -0.010276 0.273360 -5.466940
